<svg preserveAspectRatio="xMidYMid meet" width="86.4" height="86.4" viewBox="0 0 256 256" fill="none" xmlns="http://www.w3.org/2000/svg">
  <!-- Phosphor TreeStructure Regular, same family as pf-frw icons -->
  <path d="M200,160a32.06,32.06,0,0,0-31,24H112a16,16,0,0,1-16-16V120h32a8,8,0,0,0,0-16H96V72a16,16,0,0,1,16-16h57.06A32,32,0,1,0,169,40H112A32,32,0,0,0,80,72v32H48a8,8,0,0,0,0,16H80v48a32,32,0,0,0,32,32h57.06A32,32,0,1,0,200,160Zm0-128a16,16,0,1,1-16,16A16,16,0,0,1,200,32ZM200,208a16,16,0,1,1,16-16A16,16,0,0,1,200,208Z" fill="#5AD1B0"/>
</svg>
