<svg preserveAspectRatio="none" overflow="visible" style="display: block;" width="64" height="64" viewBox="0 0 64 64" fill="none" xmlns="http://www.w3.org/2000/svg">
<g id="ListNumbers">
<path id="Vector" d="M56.0001 32.0014C56.0001 32.5319 55.7894 33.0406 55.4143 33.4156C55.0393 33.7907 54.5305 34.0014 54.0001 34.0014H26.0001C25.4697 34.0014 24.961 33.7907 24.5859 33.4156C24.2108 33.0406 24.0001 32.5319 24.0001 32.0014C24.0001 31.471 24.2108 30.9623 24.5859 30.5872C24.961 30.2121 25.4697 30.0014 26.0001 30.0014H54.0001C54.5305 30.0014 55.0393 30.2121 55.4143 30.5872C55.7894 30.9623 56.0001 31.471 56.0001 32.0014ZM26.0001 18.0014H54.0001C54.5305 18.0014 55.0393 17.7907 55.4143 17.4156C55.7894 17.0406 56.0001 16.5319 56.0001 16.0014C56.0001 15.471 55.7894 14.9623 55.4143 14.5872C55.0393 14.2121 54.5305 14.0014 54.0001 14.0014H26.0001C25.4697 14.0014 24.961 14.2121 24.5859 14.5872C24.2108 14.9623 24.0001 15.471 24.0001 16.0014C24.0001 16.5319 24.2108 17.0406 24.5859 17.4156C24.961 17.7907 25.4697 18.0014 26.0001 18.0014ZM54.0001 46.0014H26.0001C25.4697 46.0014 24.961 46.2121 24.5859 46.5872C24.2108 46.9623 24.0001 47.471 24.0001 48.0014C24.0001 48.5319 24.2108 49.0406 24.5859 49.4156C24.961 49.7907 25.4697 50.0014 26.0001 50.0014H54.0001C54.5305 50.0014 55.0393 49.7907 55.4143 49.4156C55.7894 49.0406 56.0001 48.5319 56.0001 48.0014C56.0001 47.471 55.7894 46.9623 55.4143 46.5872C55.0393 46.2121 54.5305 46.0014 54.0001 46.0014ZM10.8951 13.7914L12.0001 13.2364V26.0014C12.0001 26.5319 12.2108 27.0406 12.5859 27.4156C12.961 27.7907 13.4697 28.0014 14.0001 28.0014C14.5305 28.0014 15.0393 27.7907 15.4143 27.4156C15.7894 27.0406 16.0001 26.5319 16.0001 26.0014V10.0014C16.0004 9.66034 15.9134 9.32486 15.7474 9.02687C15.5814 8.72888 15.342 8.47828 15.0519 8.29891C14.7618 8.11953 14.4306 8.01733 14.0899 8.00202C13.7491 7.98671 13.4101 8.0588 13.1051 8.21143L9.10511 10.2114C8.63037 10.4488 8.26937 10.865 8.10153 11.3686C8.01842 11.6179 7.98523 11.8812 8.00386 12.1433C8.0225 12.4055 8.09258 12.6614 8.21011 12.8964C8.32764 13.1315 8.49033 13.3411 8.68887 13.5133C8.88741 13.6855 9.11793 13.8169 9.36725 13.9C9.87079 14.0679 10.4204 14.0288 10.8951 13.7914ZM19.9426 39.1814C19.832 38.3893 19.5624 37.6278 19.15 36.9425C18.7375 36.2573 18.1908 35.6625 17.5426 35.1939C16.2444 34.2512 14.6319 33.8471 13.0425 34.0661C11.4531 34.2851 10.01 35.1103 9.01511 36.3689C8.63486 36.8572 8.33368 37.4022 8.12261 37.9839C8.01239 38.2343 7.95472 38.5047 7.95316 38.7783C7.9516 39.0518 8.00618 39.3228 8.11353 39.5745C8.22088 39.8261 8.37872 40.053 8.57728 40.2412C8.77584 40.4294 9.0109 40.5749 9.26793 40.6686C9.52495 40.7624 9.79848 40.8024 10.0716 40.7862C10.3447 40.77 10.6116 40.6979 10.8557 40.5744C11.0998 40.451 11.316 40.2787 11.491 40.0684C11.6659 39.858 11.7958 39.614 11.8726 39.3514C11.9426 39.1597 12.0421 38.98 12.1676 38.8189C12.5204 38.3793 13.0291 38.0927 13.5879 38.0187C14.1467 37.9446 14.7125 38.0889 15.1676 38.4214C15.3865 38.5763 15.5717 38.774 15.7118 39.0027C15.8519 39.2313 15.944 39.4861 15.9826 39.7514C16.0179 40.0063 16.0013 40.2657 15.9339 40.514C15.8664 40.7623 15.7495 40.9944 15.5901 41.1964C15.5828 41.2051 15.5761 41.2143 15.5701 41.2239L8.39761 50.8039C8.17535 51.1013 8.04022 51.4546 8.00734 51.8243C7.97447 52.1941 8.04515 52.5657 8.21147 52.8975C8.37779 53.2294 8.63319 53.5084 8.94909 53.7034C9.26498 53.8984 9.6289 54.0016 10.0001 54.0014H18.0001C18.5305 54.0014 19.0393 53.7907 19.4143 53.4156C19.7894 53.0406 20.0001 52.5319 20.0001 52.0014C20.0001 51.471 19.7894 50.9623 19.4143 50.5872C19.0393 50.2121 18.5305 50.0014 18.0001 50.0014H14.0001L18.7701 43.6189C19.2537 42.996 19.6068 42.282 19.8083 41.5196C20.0097 40.7572 20.0554 39.9619 19.9426 39.1814Z" fill="#2997FF"/>
</g>
</svg>
