<svg preserveAspectRatio="none" overflow="visible" style="display: block;" width="48" height="48" viewBox="0 0 48 48" fill="none" xmlns="http://www.w3.org/2000/svg">
<g id="Bag">
<path id="Vector" d="M40.5 12H33C33 9.61305 32.0518 7.32387 30.364 5.63604C28.6761 3.94821 26.3869 3 24 3C21.6131 3 19.3239 3.94821 17.636 5.63604C15.9482 7.32387 15 9.61305 15 12H7.5C6.70435 12 5.94129 12.3161 5.37868 12.8787C4.81607 13.4413 4.5 14.2044 4.5 15V37.5C4.5 38.2956 4.81607 39.0587 5.37868 39.6213C5.94129 40.1839 6.70435 40.5 7.5 40.5H40.5C41.2956 40.5 42.0587 40.1839 42.6213 39.6213C43.1839 39.0587 43.5 38.2956 43.5 37.5V15C43.5 14.2044 43.1839 13.4413 42.6213 12.8787C42.0587 12.3161 41.2956 12 40.5 12ZM24 6C25.5913 6 27.1174 6.63214 28.2426 7.75736C29.3679 8.88258 30 10.4087 30 12H18C18 10.4087 18.6321 8.88258 19.7574 7.75736C20.8826 6.63214 22.4087 6 24 6ZM40.5 37.5H7.5V15H15V18C15 18.3978 15.158 18.7794 15.4393 19.0607C15.7206 19.342 16.1022 19.5 16.5 19.5C16.8978 19.5 17.2794 19.342 17.5607 19.0607C17.842 18.7794 18 18.3978 18 18V15H30V18C30 18.3978 30.158 18.7794 30.4393 19.0607C30.7206 19.342 31.1022 19.5 31.5 19.5C31.8978 19.5 32.2794 19.342 32.5607 19.0607C32.842 18.7794 33 18.3978 33 18V15H40.5V37.5Z" fill="#A5B5E1"/>
</g>
</svg>
